<?xml version="1.0" encoding="UTF-8"?>
<svg version="1.1" viewBox="0 0 128 128" xmlns="http://www.w3.org/2000/svg" xmlns:cc="http://creativecommons.org/ns#">
	<g transform="translate(-198.72 -346.82)">
	<path d="m326.52 405.74a64 64 0 0 1 -58.579 68.866 64 64 0 0 1 -68.994 -58.429 64 64 0 0 1 58.278 -69.122 64 64 0 0 1 69.249 58.127" fill="#565dff" />
	<path d="m262.99 346.83c-0.28327 8e-3 -0.56648 0.0189-0.84961 0.0312-23.302 0.32198-42.281 19.613-42.281 43.213v21.635h-7.1426v38.414c1.1718 1.5346 2.412 3.0146 3.7168 4.4355 1.4446 1.5575 2.9653 3.0412 4.5566 4.4453 1.5916 1.4052 3.2519 2.7291 4.9746 3.9668 1.722 1.2369 3.5042 2.3862 5.3398 3.4434 1.8359 1.0574 3.723 2.0216 5.6543 2.8887 1.9314 0.8666 3.9046 1.6351 5.9121 2.3027 2.0078 0.66828 4.0475 1.2347 6.1113 1.6973 2.063 0.46231 4.1477 0.82018 6.2461 1.0723 2.0524 0.24422 4.1154 0.38697 6.1816 0.42773h0.44531c2.0117 0.0322 4.0237-0.0324 6.0293-0.19336 1.4454-0.11933 2.8864-0.2887 4.3203-0.50781 2.09-0.31902 4.1629-0.74338 6.2109-1.2715 2.0476-0.5286 4.0677-1.1602 6.0527-1.8926 1.9853-0.73263 3.933-1.565 5.8359-2.4941 1.903-0.92856 3.7588-1.9526 5.5605-3.0684 1.8021-1.1156 3.5477-2.3216 5.2305-3.6133 1.6823-1.2926 3.2996-2.6693 4.8457-4.125 1.5462-1.4547 3.0194-2.9866 4.4141-4.5898 0.81668-0.97791 1.6041-1.9803 2.3613-3.0059v-38.332h-7.1445v-21.635c0-23.705-19.138-43.09-42.582-43.244zm-0.27343 18.396c15.714 0 24.57 8.9814 24.57 24.848v21.635h-49.143v-21.635c0-15.866 8.858-24.848 24.572-24.848z" fill="#646eff" />
	<path transform="translate(198.72 346.82)" d="m210.5 72.102c-0.19717 0-0.37961 0.055878-0.57618 0.058594a63.397 64.01 0 0 1 0.84961 -0.03125c-0.09344-6.13e-4 -0.17986-0.027344-0.27343-0.027344z" fill="#646eff" />
	<g transform="matrix(1.1173 0 0 1.1173 20.737 27.336)" fill="#fff">
		<g aria-label="LIP">
			<path d="m184.11 330.65h7.5195l-4.5703 23.477h13.164l-1.0742 5.6836h-20.723z"/>
			<path d="m209.58 330.65h7.5195l-5.6836 29.16h-7.5195z"/>
			<path d="m224.5 330.65h12.48q4.5898 0 7.168 2.1094 2.5976 2.0898 2.5976 5.8203 0 2.2852-0.85937 4.3555-0.85938 2.0508-2.4609 3.5938-1.7383 1.6602-4.1406 2.4219-2.4024 0.74219-6.0352 0.74219h-4.9609l-1.9531 10.117h-7.5195zm6.4844 5.4492-1.6016 8.1445h4.1602q2.6562 0 4.0625-1.25t1.4062-3.6328q0-1.582-1.0156-2.4219-0.99609-0.83984-2.8906-0.83984z"/>
		</g>
		<g aria-label="tk">
			<path d="m249.08 321.4v2.4844h2.9609v1.1172h-2.9609v4.75q0 1.0703 0.28907 1.375 0.29687 0.30468 1.1953 0.30468h1.4766v1.2031h-1.4766q-1.6641 0-2.2969-0.61719-0.63281-0.625-0.63281-2.2656v-4.75h-1.0547v-1.1172h1.0547v-2.4844z"/>
			<path d="m253.89 320.48h1.4453v7.1797l4.2891-3.7734h1.8359l-4.6406 4.0938 4.8359 4.6562h-1.875l-4.4453-4.2734v4.2734h-1.4453z"/>
			</g>
		</g>
	</g>
</svg>
